<svg viewBox="0 0 24 24" fill="none" xmlns="http://www.w3.org/2000/svg">
<path d="M11.9999 0.000732422C5.37266 0.000732422 8.01086e-05 5.3734 8.01086e-05 12.0006C8.01086e-05 18.6276 5.37258 24.0007 11.9997 24.0007C18.6268 24.0007 23.9999 18.6276 23.9999 12.0006C23.9999 5.3734 18.6269 0.000732422 11.9999 0.000732422ZM15.1379 17.4567C14.919 17.6754 14.6322 17.7848 14.3458 17.7848C14.0592 17.7848 13.7723 17.6754 13.5536 17.4566L9.05007 12.9532C8.98303 12.9103 8.91895 12.8609 8.86063 12.8024C8.63695 12.5784 8.52903 12.2841 8.53447 11.9909C8.52927 11.6975 8.63695 11.4029 8.86063 11.1792C8.91935 11.1207 8.98303 11.0713 9.05007 11.0283L13.5335 6.54491C13.9711 6.10771 14.6806 6.10755 15.1181 6.54515C15.5557 6.9825 15.5557 7.69194 15.1181 8.12977L11.2569 11.9909L15.138 15.8722C15.5754 16.3097 15.5754 17.0191 15.1379 17.4567Z"/>
</svg>
