<svg width="42" height="40" viewBox="0 0 42 40" fill="none" xmlns="http://www.w3.org/2000/svg">
<path d="M8.13679 2.86389H33.5563C34.0223 2.86389 34.3844 3.25614 34.3844 3.71545V5.19731L40.5867 6.8602C41.0393 6.98089 41.284 7.45361 41.1667 7.89951L34.3844 33.205V39.1492C34.3844 39.6119 34.0223 40.0008 33.5563 40.0008H8.13679C7.66742 40.0008 7.30869 39.6085 7.30869 39.1492V35.0657L0.0301744 7.89616C-0.087167 7.45361 0.157574 6.97754 0.610176 6.85685L7.30869 5.0632V3.7188C7.30869 3.2595 7.67077 2.86389 8.13679 2.86389ZM34.3844 6.70598V27.7671L39.6513 8.11743L34.3844 6.70598ZM7.30869 29.6278V6.57188L1.54555 8.11743L7.30869 29.6278ZM16.0355 0.0275791L22.7542 1.82793H17.1218L16.2132 1.58319L16.1462 1.82793H14.6911L15.0096 0.641107C15.1303 0.19521 15.5829 -0.0931149 16.0355 0.0275791ZM26.0531 20.683L23.2269 17.9708L22.6301 21.6352C22.6201 21.7056 22.5966 21.7793 22.5631 21.843C22.5295 21.9067 22.4826 21.9671 22.4223 22.0174C22.2949 22.1246 22.1339 22.1716 21.9797 22.1615C21.8255 22.1481 21.6746 22.0777 21.564 21.9503L17.2458 16.8342L12.7131 20.9311V22.2889H28.9867V17.5684L26.3012 20.6595C26.2744 20.7031 26.2241 20.73 26.1705 20.73C26.1235 20.73 26.0833 20.7132 26.0531 20.683ZM26.1571 19.0872L28.9833 15.6977V11.1482H12.7131V19.2816C14.0877 18.0378 15.5025 16.6699 16.9072 15.4898C17.0313 15.3825 17.1855 15.3356 17.333 15.3457C17.4872 15.3524 17.6381 15.4194 17.7487 15.5401L17.7521 15.5468C17.7588 15.5535 17.7655 15.5602 17.7722 15.5703L21.6344 20.1399L22.2077 16.6163C22.2379 16.4554 22.3284 16.3213 22.4524 16.2307C22.5765 16.1436 22.7341 16.0966 22.8983 16.1235L22.9151 16.1268C22.9721 16.1369 23.0291 16.157 23.0794 16.1805C23.1364 16.2073 23.1867 16.2442 23.2336 16.2877L26.1571 19.0872ZM23.2504 11.3393C23.4884 11.3393 23.7231 11.3896 23.9343 11.4767C24.1556 11.5673 24.3534 11.7014 24.5176 11.8656C24.6819 12.0299 24.816 12.2277 24.9099 12.449C24.9971 12.6602 25.044 12.8949 25.044 13.1329C25.044 13.371 24.9937 13.6057 24.9099 13.8169C24.8194 14.0381 24.6853 14.2359 24.521 14.4002C24.3567 14.5645 24.1589 14.6986 23.9376 14.7891C23.7264 14.8796 23.4951 14.9266 23.2537 14.9266C23.0157 14.9266 22.781 14.8763 22.5698 14.7891C22.3485 14.6986 22.1541 14.5645 21.9864 14.4002C21.8221 14.2359 21.688 14.0381 21.5942 13.8169C21.507 13.6057 21.4601 13.3743 21.4601 13.1329C21.4601 12.8949 21.5104 12.6602 21.5942 12.449C21.6847 12.2277 21.8188 12.0299 21.9831 11.8656C22.1473 11.7014 22.3452 11.5673 22.5664 11.4767C22.7776 11.3862 23.009 11.3393 23.2504 11.3393ZM23.7901 12.5965C23.7197 12.5261 23.6359 12.4691 23.542 12.4289C23.4549 12.392 23.3543 12.3719 23.2504 12.3719C23.1464 12.3719 23.0492 12.392 22.9587 12.4289C22.8648 12.4691 22.781 12.5261 22.7106 12.5932C22.6402 12.6636 22.5832 12.7474 22.5463 12.8413C22.5094 12.9318 22.4893 13.029 22.4893 13.1329C22.4893 13.2335 22.5094 13.3341 22.5463 13.4246C22.5865 13.5185 22.6435 13.6023 22.7106 13.6727C22.781 13.7431 22.8648 13.8001 22.9587 13.8403C23.0458 13.8772 23.1464 13.8973 23.2504 13.8973C23.3509 13.8973 23.4515 13.8772 23.542 13.8403C23.6359 13.8001 23.7197 13.7431 23.7901 13.6761C23.8605 13.6057 23.9175 13.5218 23.9578 13.428C23.9946 13.3374 24.0147 13.2402 24.0147 13.1363C24.0147 13.0357 23.9946 12.9351 23.9578 12.8446C23.9175 12.7507 23.8605 12.6669 23.7901 12.5965ZM12.123 9.93454H29.5767C29.741 9.93454 29.8885 10.0049 29.9958 10.1156C30.1031 10.2229 30.1668 10.3771 30.1668 10.5414V22.8957C30.1668 23.06 30.1031 23.2109 29.9958 23.3215C29.8885 23.4322 29.741 23.5026 29.5767 23.5026H12.123C11.9588 23.5026 11.8112 23.4322 11.7073 23.3215C11.6 23.2142 11.5363 23.06 11.5363 22.8957V10.5414C11.5363 10.3771 11.6 10.2262 11.7073 10.1156C11.8112 10.0049 11.9588 9.93454 12.123 9.93454ZM13.9267 25.4974H24.226C24.3232 25.4974 24.407 25.5376 24.4707 25.5979L24.4808 25.6114C24.5344 25.6751 24.5713 25.7522 24.5713 25.8427V26.5132C24.5713 26.6071 24.5311 26.6942 24.4707 26.7579C24.407 26.8216 24.3232 26.8585 24.226 26.8585H13.9267C13.8295 26.8585 13.7457 26.8183 13.682 26.7579L13.6719 26.7445C13.6183 26.6808 13.5814 26.6037 13.5814 26.5132V25.8427C13.5814 25.7455 13.6217 25.6616 13.682 25.5979C13.7491 25.5376 13.8329 25.4974 13.9267 25.4974ZM11.704 25.4974H12.5589C12.6528 25.4974 12.7366 25.5376 12.8036 25.5979C12.864 25.6616 12.9042 25.7488 12.9042 25.8427V26.5132C12.9042 26.6071 12.864 26.6942 12.8036 26.7579C12.7399 26.8216 12.6561 26.8585 12.5589 26.8585H11.704C11.6101 26.8585 11.5229 26.8183 11.4592 26.7579C11.3955 26.6976 11.3586 26.6104 11.3586 26.5132V25.8427C11.3586 25.7455 11.3989 25.6616 11.4592 25.5979C11.5196 25.5342 11.6101 25.4974 11.704 25.4974ZM11.8515 31.2236H29.8449C29.9857 31.2236 30.1098 31.2873 30.2003 31.3913C30.2841 31.4885 30.3378 31.6192 30.3378 31.7634V31.8975C30.3378 32.0417 30.2875 32.1758 30.2003 32.2696L30.1903 32.2797C30.1031 32.3769 29.979 32.4339 29.8449 32.4339H11.8515C11.7107 32.4339 11.5866 32.3702 11.4961 32.2663C11.4123 32.1691 11.3586 32.0383 11.3586 31.8941V31.76C11.3586 31.6159 11.4123 31.4818 11.4961 31.3879L11.5062 31.3778C11.5967 31.284 11.714 31.2236 11.8515 31.2236ZM11.8515 28.3404H29.8449C29.9857 28.3404 30.1098 28.4041 30.2003 28.508C30.2841 28.6052 30.3378 28.736 30.3378 28.8801V29.0143C30.3378 29.1584 30.2875 29.2925 30.2003 29.3864L30.1903 29.3965C30.1031 29.4937 29.979 29.5507 29.8449 29.5507H11.8515C11.7107 29.5507 11.5866 29.487 11.4961 29.383C11.4123 29.2858 11.3586 29.1551 11.3586 29.0109V28.8768C11.3586 28.7326 11.4123 28.5985 11.4961 28.5047L11.5062 28.4946C11.5967 28.4007 11.714 28.3404 11.8515 28.3404ZM32.9796 4.32227H8.71679V38.5457H32.9796V4.32227Z" fill="black" fill-opacity="0.8"/>
</svg>
