<svg viewBox="0 0 24 24" fill="none" xmlns="http://www.w3.org/2000/svg">
<path d="M12 0.000732422C5.37256 0.000732422 0 5.37329 0 12.0007C0 18.628 5.37256 24.0007 12 24.0007C18.6274 24.0007 24 18.628 24 12.0007C24 5.37329 18.6274 0.000732422 12 0.000732422ZM15.6566 12.8135C15.5982 12.8719 15.534 12.9214 15.4672 12.9643L10.9636 17.4679C10.7449 17.6868 10.4582 17.7962 10.1714 17.7962C9.88472 17.7962 9.59816 17.6868 9.37928 17.4679C8.94168 17.0303 8.94168 16.3207 9.37928 15.8833L13.26 12.002L9.3988 8.14081C8.9612 7.70297 8.9612 6.99361 9.3988 6.55617C9.8364 6.11857 10.5458 6.11881 10.9834 6.55593L15.4671 11.0394C15.5339 11.0823 15.5981 11.1317 15.6563 11.1903C15.88 11.4139 15.9879 11.7086 15.9829 12.0019C15.9882 12.2951 15.8805 12.5896 15.6566 12.8135Z"/>
</svg>
