<svg width="32" height="32" viewBox="0 0 32 32" fill="none" xmlns="http://www.w3.org/2000/svg">
<path fill-rule="evenodd" clip-rule="evenodd" d="M16 32C24.8366 32 32 24.8366 32 16C32 7.16344 24.8366 0 16 0C7.16344 0 0 7.16344 0 16C0 24.8366 7.16344 32 16 32ZM8.35877 8.41511C10.4183 6.528 14.1001 6.24711 15.8112 6.224C16.3819 6.216 16.7339 6.23823 16.7339 6.23823C21.5072 6.256 23.6405 7.81156 24.1739 8.30045L24.1828 8.30223C25.9428 9.83111 26.9205 13.2089 26.2628 18.5698C25.6794 23.3026 22.3771 24.1355 21.2724 24.4142C21.1652 24.4412 21.0788 24.463 21.0174 24.4827C20.7152 24.5804 18.093 25.2373 14.6708 24.9529L13.4263 26.3573C13.3112 26.4801 13.204 26.6016 13.1019 26.7174C12.6125 27.2719 12.2384 27.6958 11.6574 27.512C11.0885 27.3342 11.1223 26.472 11.1223 26.472V24.3209C6.11788 22.9067 6.1801 17.7156 6.23344 14.9511C6.29566 12.176 6.82988 9.93511 8.35877 8.41511ZM16.653 7.75023C16.653 7.75023 16.3552 7.72978 15.8708 7.73245H15.8699C14.4165 7.74134 11.2894 7.95467 9.54988 9.528C8.26099 10.808 7.82544 12.7031 7.7721 15.0142C7.77056 15.0943 7.76878 15.177 7.76694 15.262C7.7158 17.6284 7.62577 21.7945 11.7197 22.9271L11.7019 26.4996C11.693 26.6951 11.7285 26.8373 11.8441 26.864C11.9241 26.8818 12.0485 26.8462 12.1552 26.7307C12.8308 26.0551 14.9988 23.4409 14.9988 23.4409C17.9072 23.6276 20.2183 23.0587 20.4672 22.9787C20.5251 22.9603 20.6081 22.941 20.7113 22.917C21.6542 22.6981 24.2798 22.0886 24.7605 18.1787C25.3188 13.7022 24.5561 10.656 23.0717 9.38578C22.6183 8.97689 20.6885 7.75911 16.653 7.75023ZM16.0888 10.0635C16.1211 10.0502 16.1558 10.0434 16.1908 10.0436H16.1899C17.7632 10.0436 19.0983 10.5769 20.1561 11.608C20.6974 12.1672 21.1191 12.8307 21.3957 13.5581C21.6723 14.2855 21.798 15.0616 21.765 15.8391C21.765 15.9098 21.7369 15.9777 21.6869 16.0277C21.6369 16.0777 21.569 16.1058 21.4983 16.1058V16.1138C21.4633 16.1138 21.4286 16.1069 21.3963 16.0935C21.3639 16.0801 21.3345 16.0604 21.3098 16.0357C21.285 16.0109 21.2654 15.9815 21.252 15.9492C21.2386 15.9168 21.2317 15.8821 21.2317 15.8471C21.2139 14.1938 20.7419 12.9316 19.773 11.9893C19.2988 11.5289 18.7381 11.167 18.1232 10.9244C17.5084 10.6818 16.8516 10.5634 16.1908 10.576C16.12 10.576 16.0522 10.5479 16.0022 10.4979C15.9522 10.4479 15.9241 10.3801 15.9241 10.3093C15.9241 10.2744 15.931 10.2397 15.9444 10.2074C15.9578 10.1751 15.9775 10.1458 16.0023 10.1211C16.027 10.0964 16.0564 10.0768 16.0888 10.0635ZM12.1294 10.7636C12.2945 10.6675 12.4871 10.63 12.6761 10.6569C12.8525 10.6893 13.0115 10.7839 13.1241 10.9236C13.6417 11.5143 14.1002 12.1544 14.493 12.8347C14.7508 13.288 14.5819 13.7502 14.3419 13.9458L13.8441 14.3458C13.5863 14.5413 13.6219 14.9236 13.6219 14.9236C13.6219 14.9236 14.3597 17.7316 17.133 18.4427L17.1437 18.4338C17.1437 18.4338 17.517 18.4693 17.7214 18.2204L18.1214 17.7147C18.3081 17.4658 18.7703 17.3147 19.2237 17.5636C19.9036 17.9568 20.5436 18.4153 21.1348 18.9324C21.4281 19.1813 21.4992 19.5467 21.2948 19.9289V19.9378C21.0903 20.3022 20.8148 20.6471 20.4681 20.9582C20.1976 21.2035 19.8527 21.3512 19.4885 21.3778C19.373 21.3778 19.2592 21.36 19.1348 21.3244V21.3156C18.7081 21.1911 17.9952 20.8889 16.8219 20.2489C15.7959 19.6808 14.8461 18.9849 13.9952 18.1778L13.9685 18.1511L13.9419 18.1244L13.9063 18.0978L13.8797 18.0622C13.0746 17.2147 12.3815 16.2674 11.8174 15.2436C11.3823 14.5125 11.0247 13.7379 10.7508 12.9324L10.733 12.9236C10.6828 12.7685 10.6676 12.6043 10.6885 12.4427C10.7241 12.1671 10.8583 11.8836 11.0983 11.5991C11.4183 11.2436 11.7543 10.9769 12.1188 10.7636H12.1294ZM16.4638 11.5267C16.5136 11.4766 16.5814 11.4482 16.6521 11.448C16.6645 11.4471 16.677 11.4471 16.6894 11.448C17.845 11.528 18.7517 11.928 19.4005 12.6391C20.0494 13.3502 20.3783 14.2391 20.3517 15.2969C20.3518 15.332 20.345 15.3668 20.3316 15.3992C20.3183 15.4317 20.2986 15.4612 20.2739 15.486C20.2491 15.5109 20.2197 15.5306 20.1872 15.5441C20.1548 15.5575 20.1201 15.5644 20.085 15.5644L20.0761 15.5538C20.0055 15.5538 19.9378 15.5258 19.8879 15.476C19.8379 15.4262 19.8097 15.3586 19.8094 15.288C19.8355 14.8731 19.7781 14.4572 19.6407 14.0648C19.5033 13.6724 19.2887 13.3116 19.0094 13.0036C18.3906 12.3644 17.5434 11.9968 16.6539 11.9813C16.5832 11.9816 16.5152 11.9537 16.4651 11.9039C16.4149 11.854 16.3866 11.7863 16.3863 11.7156C16.3861 11.6448 16.414 11.5769 16.4638 11.5267ZM16.9831 12.9047C17.0165 12.892 17.052 12.8861 17.0877 12.8871H17.0983C18.2539 12.9493 18.9028 13.6169 18.965 14.808C18.9674 14.8438 18.9626 14.8796 18.9508 14.9135C18.939 14.9473 18.9206 14.9784 18.8965 15.005C18.8725 15.0315 18.8433 15.053 18.8108 15.068C18.7782 15.083 18.743 15.0913 18.7072 15.0924H18.6983C18.6291 15.0925 18.5626 15.0656 18.5128 15.0175C18.4631 14.9694 18.434 14.9038 18.4317 14.8347C18.3783 13.9191 17.9517 13.4747 17.0717 13.4302C17.036 13.4292 17.0009 13.4211 16.9683 13.4065C16.9358 13.3919 16.9065 13.371 16.882 13.345C16.8575 13.3191 16.8384 13.2885 16.8257 13.2552C16.813 13.2219 16.8071 13.1863 16.8081 13.1507C16.8092 13.115 16.8172 13.0799 16.8318 13.0474C16.8465 13.0148 16.8673 12.9855 16.8933 12.961C16.9193 12.9365 16.9498 12.9174 16.9831 12.9047Z" fill="black" fill-opacity="0.2"/>
</svg>
